<!-- Generated by IcoMoon.io -->
<svg version="1.1" xmlns="http://www.w3.org/2000/svg" width="32" height="32" viewBox="0 0 32 32">
<title>arrow</title>
<path d="M4.301 30.352h2.064v-6.072h2.244v-1.728h-6.552v1.728h2.244v6.072zM25.635 9.019h2.064v-6.072h2.244v-1.728h-6.552v1.728h2.244v6.072zM13.408 30.352h5.424v-1.728h-3.36v-1.392h2.76v-1.728h-2.76v-1.224h3.24v-1.728h-5.304v7.8zM24.075 19.685h5.424v-1.728h-3.36v-1.392h2.76v-1.728h-2.76v-1.224h3.24v-1.728h-5.304v7.8zM27.363 30.496c1.056 0 1.968-0.384 2.616-1.152l-1.128-1.248c-0.336 0.36-0.768 0.624-1.272 0.624-1.056 0-1.8-0.816-1.8-2.28 0-1.416 0.744-2.256 1.704-2.256 0.528 0 0.912 0.192 1.272 0.504l1.128-1.272c-0.552-0.528-1.392-1.008-2.4-1.008-2.112 0-3.816 1.488-3.816 4.104 0 2.664 1.752 3.984 3.696 3.984z"></path>
</svg>
