<svg viewBox="0 0 192 192" xmlns="http://www.w3.org/2000/svg" fill-rule="evenodd" clip-rule="evenodd" stroke-linejoin="round" stroke-miterlimit="2"><path d="M25.808 182.112h12.384V145.68h13.464v-10.368H12.344v10.368h13.464v36.432zM153.808 54.112h12.384V17.68h13.464V7.312h-39.312V17.68h13.464v36.432zM80.448 182.112h32.544v-10.368h-20.16v-8.352h16.56v-10.368h-16.56v-7.344h19.44v-10.368H80.448v46.8zM144.448 118.112h32.544v-10.368h-20.16v-8.352h16.56V89.024h-16.56V81.68h19.44V71.312h-31.824v46.8zM164.176 182.976c6.336 0 11.808-2.304 15.696-6.912l-6.768-7.488c-2.016 2.16-4.608 3.744-7.632 3.744-6.336 0-10.8-4.896-10.8-13.68 0-8.496 4.464-13.536 10.224-13.536 3.168 0 5.472 1.152 7.632 3.024l6.768-7.632c-3.312-3.168-8.352-6.048-14.4-6.048-12.672 0-22.896 8.928-22.896 24.624 0 15.984 10.512 23.904 22.176 23.904z" fill-rule="nonzero"/></svg>
